<?xml version="1.0" encoding="utf-8"?>
<!-- Generator: Adobe Illustrator 19.2.0, SVG Export Plug-In . SVG Version: 6.00 Build 0)  -->
<svg version="1.1" id="Layer_1" xmlns="http://www.w3.org/2000/svg" xmlns:xlink="http://www.w3.org/1999/xlink" x="0px" y="0px"
	 viewBox="0 0 680 680" style="enable-background:new 0 0 680 680;" xml:space="preserve">
<style type="text/css">
	.st0{fill:#007EFF;}
	.st1{fill:#25BAAA;}
	.st2{fill:#14BA5F;}
	.st3{fill:#EDAF13;}
	.st4{fill:#FE3131;}
	.st5{fill:#751AC4;}
	.st6{fill:#8E877D;}
	.st7{fill:#231F20;}
	.st8{fill:#FFE6D1;}
	.st9{fill:#F7DBC1;}
	.st10{fill:#FFCC00;}
	.st11{fill:#FFFFFF;}
	.st12{fill:#FE2626;}
	.st13{clip-path:url(#SVGID_2_);}
	.st14{fill:#303030;}
	.st15{clip-path:url(#SVGID_4_);}
	.st16{fill:#008743;}
	.st17{fill:#EAC9B0;}
	.st18{fill:#006831;}
	.st19{fill:#58595B;}
	.st20{fill:#02BA5E;}
	.st21{fill:#8FAAB5;}
	.st22{opacity:0.5;fill:#58595B;}
	.st23{fill:#FF00FF;}
	.st24{fill:#FFE9C5;}
	.st25{fill:#42D8C5;}
	.st26{fill:#4170FD;}
	.st27{fill:#FF3131;}
	.st28{fill:none;stroke:#BBBDBF;stroke-width:10;stroke-miterlimit:10;}
	.st29{fill:none;stroke:#231F20;stroke-width:10;stroke-miterlimit:10;}
	.st30{opacity:0.15;}
	.st31{fill:none;stroke:#BBBDBF;stroke-width:5;stroke-linecap:round;stroke-miterlimit:10;}
	.st32{fill:#D0D2D3;}
	.st33{fill:#BBBDBF;}
	.st34{opacity:0.15;fill:#FFE9C5;}
</style>
<rect y="0" class="st2" width="680" height="680"/>
<g>
	<g>
		<g>
			<defs>
				<path id="SVGID_3_" d="M1021.364-64.558c-115.973,0-209.988,87.257-209.988,203.23v318.061h209.988
					c68.708,0,124.441,55.525,124.792,124.15h85.196v-124.15v-55.276V138.672C1231.351,22.699,1137.337-64.558,1021.364-64.558z"/>
			</defs>
			<clipPath id="SVGID_2_">
				<use xlink:href="#SVGID_3_"  style="overflow:visible;"/>
			</clipPath>
			<g class="st13">
				<g>
					
						<rect x="642.354" y="204.114" transform="matrix(0.7071 -0.7071 0.7071 0.7071 27.8758 525.8023)" class="st14" width="12.567" height="50.277"/>
				</g>
			</g>
		</g>
	</g>
</g>
<g>
	<path class="st8" d="M226.392,438.308l-39.487,82.108c-1.917,5.791,2.526,11.717,8.783,11.717h38.156v60.875h212.31l-0.023-155.341
		L226.392,438.308z"/>
	<rect x="233.845" y="593.008" class="st11" width="212.31" height="87.189"/>
	<path class="st16" d="M446.155,653.458H254.261c-11.276,0-20.417,9.141-20.417,20.417V680h212.31V653.458z"/>
	<path class="st17" d="M203.029,486.889l46.616-96.933c5.321-11.064,16.512-18.1,28.789-18.1h135.764
		c17.647,0,31.952,14.309,31.945,31.956l-0.012,33.855L203.029,486.889z"/>
	<path class="st7" d="M414.199,371.855H278.435c-12.277,0-23.468,7.036-28.789,18.1l0,0c-10.627,22.098,5.476,47.711,29.997,47.711
		h166.49l0.012-33.855C446.15,386.164,431.846,371.855,414.199,371.855z"/>
	<path d="M288.68,557.755h-54.835v-25.622h68.669v11.788C302.513,551.562,296.32,557.755,288.68,557.755z"/>
	<g>
		<path class="st16" d="M432.308,250.38c-73.873,0.009-136.968,0.047-168.617,0.07c-13.322,0.01-25.475,7.584-31.357,19.537
			l-82.52,167.68h348.359l-31.268-158.841C463.652,262.296,449.155,250.378,432.308,250.38z"/>
		<path d="M370.168,333.703v-7.372h36.94l22.503-22.503h-29.568v-7.372h36.94l1.554-1.554c4.878-4.878,7.618-11.493,7.618-18.391
			l0-29.061h-29.061c-6.898,0-13.513,2.74-18.391,7.618l-79.085,79.085c-11.241,11.241-10.994,29.619,0.739,40.547
			c11.177,10.409,28.772,9.609,39.572-1.191l39.807-39.807H370.168z"/>
		<g>
			
				<rect x="273.177" y="367.234" transform="matrix(0.7071 -0.7071 0.7071 0.7071 -169.6093 336.0502)" class="st11" width="95.333" height="11.056"/>
		</g>
		<rect x="180.315" y="333.667" class="st10" width="309.4" height="41.6"/>
		<path class="st18" d="M149.814,437.667c71.234,0,348.359,0,348.359,0c21.539,0,39-17.461,39-39v-23.4h-47.459
			C378.999,375.267,279.548,437.667,149.814,437.667z"/>
	</g>
	<path d="M410.916,513.713c0-41.999-34.047-76.046-76.046-76.046h111.262v76.046H410.916z"/>
	<rect x="410.916" y="513.713" width="35.239" height="44.043"/>
</g>
</svg>
