<?xml version="1.0" encoding="utf-8"?>
<!-- Generator: Adobe Illustrator 19.2.0, SVG Export Plug-In . SVG Version: 6.00 Build 0)  -->
<svg version="1.1" id="Layer_1" xmlns="http://www.w3.org/2000/svg" xmlns:xlink="http://www.w3.org/1999/xlink" x="0px" y="0px"
	 viewBox="0 0 680 680" style="enable-background:new 0 0 680 680;" xml:space="preserve">
<style type="text/css">
	.st0{fill:#007EFF;}
	.st1{fill:#25BAAA;}
	.st2{fill:#14BA5F;}
	.st3{fill:#EDAF13;}
	.st4{fill:#FE3131;}
	.st5{fill:#751AC4;}
	.st6{fill:#8E877D;}
	.st7{fill:#231F20;}
	.st8{fill:#FFE6D1;}
	.st9{fill:#F7DBC1;}
	.st10{fill:#FFCC00;}
	.st11{fill:#FFFFFF;}
	.st12{fill:#FE2626;}
	.st13{clip-path:url(#SVGID_2_);}
	.st14{fill:#303030;}
	.st15{clip-path:url(#SVGID_4_);}
	.st16{fill:#008743;}
	.st17{fill:#EAC9B0;}
	.st18{fill:#006831;}
	.st19{fill:#58595B;}
	.st20{fill:#02BA5E;}
	.st21{fill:#8FAAB5;}
	.st22{opacity:0.5;fill:#58595B;}
	.st23{fill:#FF00FF;}
	.st24{fill:#FFE9C5;}
	.st25{fill:#42D8C5;}
	.st26{fill:#4170FD;}
	.st27{fill:#FF3131;}
	.st28{fill:none;stroke:#BBBDBF;stroke-width:10;stroke-miterlimit:10;}
	.st29{fill:none;stroke:#231F20;stroke-width:10;stroke-miterlimit:10;}
	.st30{opacity:0.15;}
	.st31{fill:none;stroke:#BBBDBF;stroke-width:5;stroke-linecap:round;stroke-miterlimit:10;}
	.st32{fill:#D0D2D3;}
	.st33{fill:#BBBDBF;}
	.st34{opacity:0.15;fill:#FFE9C5;}
</style>
<rect y="0" class="st4" width="680" height="680"/>
<g>
	<path class="st8" d="M226.392,438.111l-39.487,82.108c-1.917,5.79,2.526,11.717,8.783,11.717h38.156v60.875h212.31l-0.023-155.341
		L226.392,438.111z"/>
	<rect x="233.845" y="592.811" class="st11" width="212.31" height="87.189"/>
	<path d="M446.155,653.261H254.261c-11.276,0-20.417,9.141-20.417,20.417v6.125h212.31V653.261z"/>
	<path d="M269.257,531.936h-35.412v17.983h49.246v-4.15C283.091,538.129,276.897,531.936,269.257,531.936z"/>
	<path class="st17" d="M203.029,486.691l46.616-96.933c5.321-11.064,16.512-18.1,28.789-18.1h135.764
		c17.647,0,31.952,14.309,31.945,31.956l-0.012,33.855L203.029,486.691z"/>
	<path class="st7" d="M414.199,371.658H278.435c-12.277,0-23.468,7.036-28.789,18.1l0,0c-10.627,22.098,5.476,47.711,29.997,47.711
		h166.49l0.012-33.855C446.15,385.967,431.846,371.658,414.199,371.658z"/>
	<path d="M221.487,422.358h237.027l-10.816-87.247c-1.248-10.063-9.798-17.62-19.939-17.62H252.241
		c-10.14,0-18.691,7.556-19.939,17.62L221.487,422.358z"/>
	<polygon class="st22" points="221.487,409.358 458.513,409.358 453.084,378.563 226.916,378.563 	"/>
	<path d="M145.987,409.358h388.027v6.487c0,11.943-9.682,21.624-21.624,21.624H167.611c-11.943,0-21.624-9.682-21.624-21.624
		V409.358z"/>
	<path d="M258.506,568.15c-20.559,0-24.661,0-24.661,0v24.661C233.845,592.811,258.506,592.811,258.506,568.15z"/>
	<path class="st7" d="M446.155,548.61h-19.526c-24.221,0-43.856-19.635-43.856-43.856v-67.286h63.382V548.61z"/>
</g>
</svg>
