<?xml version="1.0" encoding="utf-8"?>
<!-- Generator: Adobe Illustrator 19.2.0, SVG Export Plug-In . SVG Version: 6.00 Build 0)  -->
<svg version="1.1" id="Layer_1" xmlns="http://www.w3.org/2000/svg" xmlns:xlink="http://www.w3.org/1999/xlink" x="0px" y="0px"
	 viewBox="0 0 40 40" style="enable-background:new 0 0 40 40;" xml:space="preserve">
<path d="M32.499,0H7.501c-4.143,0-7.5,3.358-7.5,7.5v25c0,4.142,3.357,7.5,7.5,7.5h24.998c4.142,0,7.5-3.358,7.5-7.5v-25
	C39.999,3.358,36.641,0,32.499,0z M25.25,15.926l-0.324,3.608h-3.608v12.407h-4.622V19.534h-2.473v-3.608h2.473v-3.73
	c0-3.284,3.202-4.176,5.554-4.136c2.351,0.041,3.527,0.406,3.527,0.406l-0.568,3.689c0,0-3.891-1.459-3.891,1.5v2.271
	C21.318,15.926,25.25,15.926,25.25,15.926z"/>
</svg>
