<?xml version="1.0" encoding="utf-8"?>
<!-- Generator: Adobe Illustrator 18.0.0, SVG Export Plug-In . SVG Version: 6.00 Build 0)  -->
<!DOCTYPE svg PUBLIC "-//W3C//DTD SVG 1.1//EN" "http://www.w3.org/Graphics/SVG/1.1/DTD/svg11.dtd">
<svg version="1.1" id="Layer_1" xmlns="http://www.w3.org/2000/svg" xmlns:xlink="http://www.w3.org/1999/xlink" x="0px" y="0px"
	 viewBox="0 0 123 50" enable-background="new 0 0 123 50" xml:space="preserve">
<rect y="5" fill="#FFFFFF" width="123" height="40"/>
<ellipse fill="#00B6FF" cx="15.42704" cy="12.75071" rx="2.67516" ry="2.67516"/>
<circle fill="#FFCC00" cx="39.5795" cy="12.75071" r="2.67516"/>
<path fill="#12D7C2" d="M69.52034,33.2947c-3.94427,0-7.14753,3.192-7.14753,7.13721c0,3.94427,3.20232,7.14378,7.14753,7.14378
	c3.94334,0,7.14378-3.1995,7.14378-7.14378C76.66412,36.4867,73.46367,33.2947,69.52034,33.2947z M69.52034,43.10895
	c-1.47453,0-2.67798-1.19688-2.67798-2.67704c0-1.48109,1.20345-2.67516,2.67798-2.67516c1.47546,0,2.67798,1.19407,2.67798,2.67516
	C72.19831,41.91207,70.9958,43.10895,69.52034,43.10895z"/>
<path fill="#15BB4C" d="M59.86273,25.00188c0-3.9424-3.19294-7.14378-7.14378-7.14378c-3.94427,0-7.14378,3.20138-7.14378,7.14378
	v7.14003h4.4658v-7.14003c0-1.47641,1.20157-2.67704,2.67798-2.67704c1.47828,0,2.6808,1.20064,2.6808,2.67704v7.14003l0,0l0,0
	h5.87373l-1.40981-1.40887v-5.73116H59.86273z"/>
<path fill="#00B6FF" d="M89.00064,25.00188c0,1.47453-1.19876,2.67798-2.6761,2.67798c-1.47923,0-2.67516-1.20345-2.67516-2.67798
	V17.8581l0,0h-4.46204h-1.41451l1.41356,1.41356v5.73022c0,3.94333,3.19294,7.14003,7.13721,7.14003
	c3.9424,0,7.14284-3.19669,7.14284-7.14003V17.8581h-4.4658V25.00188z"/>
<polygon fill="#F6313F" points="26.02264,10.07555 26.02264,10.07461 20.1461,10.07461 21.6891,11.61667 21.6891,32.11376 
	21.69004,32.11376 26.02264,32.11376 33.72828,32.11376 33.72828,27.77928 26.02264,27.77928 "/>
<path fill="#0079FF" d="M108.29897,29.29133L108.29897,29.29133l-1.422-1.42294l1.83097,0.82075
	c0.65097-1.07682,1.03367-2.33561,1.03367-3.68633c0-3.94333-3.19762-7.14472-7.13909-7.14472
	c-3.94615,0-7.14284,3.20138-7.14284,7.14472c0,3.9424,3.19576,7.14003,7.14284,7.14003h8.54984L108.29897,29.29133z
	 M99.91985,25.00281c0-1.4764,1.20158-2.67798,2.68267-2.67798c1.47546,0,2.67516,1.20157,2.67516,2.67798
	c0,1.47828-1.1997,2.67704-2.67516,2.67704C101.12142,27.67986,99.91985,26.4811,99.91985,25.00281z"/>
<polygon fill="#FFCC00" points="37.41648,17.8581 35.86973,17.8581 37.41648,19.40486 37.41648,32.11376 41.7444,32.11376 
	41.7444,17.8581 41.74346,17.8581 "/>
<polygon fill="#00B6FF" points="13.2584,17.8581 11.71914,17.8581 13.2584,19.39829 13.2584,32.11376 17.59287,32.11376 
	17.59287,17.8581 17.59287,17.8581 "/>
<path fill="#12D7C2" d="M69.52034,17.8581c-0.00094,0-0.00094,0-0.00188,0h-8.54983l2.85057,2.85057
	c0,0.00094-0.00094,0.00094-0.00094,0.00188l1.42482,1.42575l-1.83472-0.82075c-0.65284,1.07682-1.03555,2.33561-1.03555,3.68633
	c0,3.9424,3.20232,7.14003,7.14753,7.14003c3.94334,0,7.14378-3.19669,7.14378-7.14003
	C76.66412,21.05854,73.46367,17.8581,69.52034,17.8581z M69.52034,27.67986c-1.47453,0-2.67798-1.19876-2.67798-2.67704
	c0-1.4764,1.20345-2.67798,2.67798-2.67798c1.47546,0,2.67798,1.20157,2.67798,2.67798
	C72.19831,26.4811,70.9958,27.67986,69.52034,27.67986z"/>
</svg>
