<?xml version="1.0" encoding="utf-8"?>
<!-- Generator: Adobe Illustrator 19.2.0, SVG Export Plug-In . SVG Version: 6.00 Build 0)  -->
<svg version="1.1" id="Layer_1" xmlns="http://www.w3.org/2000/svg" xmlns:xlink="http://www.w3.org/1999/xlink" x="0px" y="0px"
	 viewBox="0 0 106.006 50.969" style="enable-background:new 0 0 106.006 50.969;" xml:space="preserve">
<style type="text/css">
	.st0{fill-rule:evenodd;clip-rule:evenodd;fill:#FFFFFF;}
</style>
<g>
	<ellipse class="st0" cx="3.953" cy="13.842" rx="2.855" ry="2.852"/>
	<circle class="st0" cx="29.702" cy="13.842" r="2.852"/>
	<path class="st0" d="M61.622,35.744c-4.205,0-7.62,3.403-7.62,7.609c0,4.205,3.414,7.616,7.62,7.616
		c4.204,0,7.616-3.411,7.616-7.616C69.238,39.147,65.826,35.744,61.622,35.744z M61.622,46.207c-1.572,0-2.855-1.276-2.855-2.854
		c0-1.579,1.283-2.852,2.855-2.852c1.573,0,2.855,1.273,2.855,2.852C64.477,44.931,63.195,46.207,61.622,46.207z"/>
	<path class="st0" d="M51.326,26.903c0-4.203-3.404-7.616-7.616-7.616c-4.205,0-7.616,3.413-7.616,7.616v7.612h4.761v-7.612
		c0-1.574,1.281-2.854,2.855-2.854c1.576,0,2.858,1.28,2.858,2.854v7.612h0v0h6.262l-1.503-1.502V26.903z"/>
	<path class="st0" d="M82.39,26.903c0,1.572-1.278,2.855-2.853,2.855c-1.577,0-2.852-1.283-2.852-2.855v-7.616h0h-4.757H70.42
		l1.507,1.507v6.109c0,4.204,3.404,7.612,7.609,7.612c4.203,0,7.615-3.408,7.615-7.612v-7.616H82.39V26.903z"/>
	<polygon class="st0" points="15.249,10.99 15.249,10.989 8.984,10.989 10.629,12.633 10.629,34.485 10.63,34.485 15.249,34.485 
		23.464,34.485 23.464,29.864 15.249,29.864 	"/>
	<path class="st0" d="M102.964,31.476c0,0,0.001-0.001,0.001-0.001l-1.517-1.516l1.952,0.875c0.694-1.148,1.102-2.49,1.102-3.93
		c0-4.204-3.409-7.617-7.611-7.617c-4.207,0-7.615,3.413-7.615,7.617c0,4.203,3.407,7.612,7.615,7.612h9.115L102.964,31.476z
		 M94.031,26.904c0-1.574,1.281-2.855,2.86-2.855c1.573,0,2.852,1.281,2.852,2.855c0,1.576-1.279,2.854-2.852,2.854
		C95.312,29.758,94.031,28.48,94.031,26.904z"/>
	<polygon class="st0" points="27.396,19.287 25.747,19.287 27.396,20.936 27.396,34.485 32.01,34.485 32.01,19.287 32.009,19.287 	
		"/>
	<polygon class="st0" points="1.641,19.287 0,19.287 1.641,20.929 1.641,34.485 6.262,34.485 6.262,19.287 6.262,19.287 	"/>
	<path class="st0" d="M61.622,19.287c-0.001,0-0.001,0-0.002,0h-9.115l3.039,3.039c0,0.001-0.001,0.001-0.001,0.002l1.519,1.52
		l-1.956-0.875c-0.696,1.148-1.104,2.49-1.104,3.93c0,4.203,3.414,7.612,7.62,7.612c4.204,0,7.616-3.408,7.616-7.612
		C69.238,22.699,65.826,19.287,61.622,19.287z M61.622,29.758c-1.572,0-2.855-1.278-2.855-2.854c0-1.574,1.283-2.855,2.855-2.855
		c1.573,0,2.855,1.281,2.855,2.855C64.477,28.48,63.195,29.758,61.622,29.758z"/>
</g>
</svg>
