<?xml version="1.0" encoding="utf-8"?>
<!-- Generator: Adobe Illustrator 19.2.0, SVG Export Plug-In . SVG Version: 6.00 Build 0)  -->
<svg version="1.1" id="Layer_1" xmlns="http://www.w3.org/2000/svg" xmlns:xlink="http://www.w3.org/1999/xlink" x="0px" y="0px"
	 viewBox="0 0 680 680" style="enable-background:new 0 0 680 680;" xml:space="preserve">
<style type="text/css">
	.st0{fill:#007EFF;}
	.st1{fill:#25BAAA;}
	.st2{fill:#14BA5F;}
	.st3{fill:#EDAF13;}
	.st4{fill:#FE3131;}
	.st5{fill:#751AC4;}
	.st6{fill:#8E877D;}
	.st7{fill:#231F20;}
	.st8{fill:#FFE6D1;}
	.st9{fill:#F7DBC1;}
	.st10{fill:#FFCC00;}
	.st11{fill:#FFFFFF;}
	.st12{fill:#FE2626;}
	.st13{clip-path:url(#SVGID_2_);}
	.st14{fill:#303030;}
	.st15{clip-path:url(#SVGID_4_);}
	.st16{fill:#008743;}
	.st17{fill:#EAC9B0;}
	.st18{fill:#006831;}
	.st19{fill:#58595B;}
	.st20{fill:#02BA5E;}
	.st21{fill:#8FAAB5;}
	.st22{opacity:0.5;fill:#58595B;}
	.st23{fill:#FF00FF;}
	.st24{fill:#FFE9C5;}
	.st25{fill:#42D8C5;}
	.st26{fill:#4170FD;}
	.st27{fill:#FF3131;}
	.st28{fill:none;stroke:#BBBDBF;stroke-width:10;stroke-miterlimit:10;}
	.st29{fill:none;stroke:#231F20;stroke-width:10;stroke-miterlimit:10;}
	.st30{opacity:0.15;}
	.st31{fill:none;stroke:#BBBDBF;stroke-width:5;stroke-linecap:round;stroke-miterlimit:10;}
	.st32{fill:#D0D2D3;}
	.st33{fill:#BBBDBF;}
	.st34{opacity:0.15;fill:#FFE9C5;}
</style>
<rect y="0" class="st3" width="680" height="680"/>
<g>
	<path class="st8" d="M226.392,438.308l-39.487,82.108c-1.917,5.791,2.526,11.717,8.783,11.717h38.156v60.875h212.31l-0.023-155.341
		L226.392,438.308z"/>
	<rect x="233.845" y="593.008" class="st11" width="212.31" height="87.189"/>
	<path class="st12" d="M446.155,653.458H254.261c-11.276,0-20.417,9.141-20.417,20.417V680h212.31V653.458z"/>
	<path d="M288.68,532.134h-54.835v25.622h68.669v-11.788C302.513,538.327,296.32,532.134,288.68,532.134z"/>
	<path class="st17" d="M203.029,486.889l46.616-96.933c5.321-11.064,16.512-18.1,28.789-18.1h135.764
		c17.647,0,31.952,14.309,31.945,31.956l-0.012,33.855L203.029,486.889z"/>
	<path class="st7" d="M414.199,371.855H278.435c-12.277,0-23.468,7.036-28.789,18.1l0,0c-10.627,22.098,5.476,47.711,29.997,47.711
		h166.49l0.012-33.855C446.15,386.164,431.846,371.855,414.199,371.855z"/>
	<path d="M214.987,422.555h250.027V317.222c0-4.05-3.283-7.333-7.333-7.333H222.32c-4.05,0-7.333,3.283-7.333,7.333V422.555z"/>
	<rect x="214.987" y="378.761" class="st19" width="250.027" height="30.794"/>
	<rect x="106.987" y="409.555" class="st12" width="466.027" height="28.112"/>
	<g>
		<circle class="st12" cx="134.287" cy="461.989" r="14.3"/>
		<circle class="st12" cx="185.715" cy="461.989" r="14.3"/>
		<circle class="st12" cx="237.143" cy="461.989" r="14.3"/>
		<circle class="st12" cx="288.572" cy="461.989" r="14.3"/>
		<circle class="st12" cx="340" cy="461.989" r="14.3"/>
		<circle class="st12" cx="391.428" cy="461.989" r="14.3"/>
		<circle class="st12" cx="442.857" cy="461.989" r="14.3"/>
		<circle class="st12" cx="494.285" cy="461.989" r="14.3"/>
		<circle class="st12" cx="545.713" cy="461.989" r="14.3"/>
	</g>
</g>
</svg>
