<?xml version="1.0" encoding="utf-8"?>
<!-- Generator: Adobe Illustrator 19.0.1, SVG Export Plug-In . SVG Version: 6.00 Build 0)  -->
<svg version="1.1" id="Layer_3" xmlns="http://www.w3.org/2000/svg" xmlns:xlink="http://www.w3.org/1999/xlink" x="0px" y="0px"
	 viewBox="0 0 384.3 369.2" style="enable-background:new 0 0 384.3 369.2;" xml:space="preserve">
<style type="text/css">
	.st0{fill:none;}
	.st1{fill:#E2E2E2;}
	.st2{fill:#D6D6D6;}
	.st3{fill:#FFFFFF;}
	.st4{fill:#52358B;}
</style>
<g>
	<path class="st0" d="M15.5,123.7l1.7-0.7C16.6,123.1,16,123.4,15.5,123.7z"/>
</g>
<g>
	<polygon class="st1" points="109,175.7 352.9,77.2 321.7,0 14.9,123.9 12.3,125.8 10.2,133.7 	"/>
</g>
<g>
	<path class="st2" d="M116.9,172.5l-2.8-1.2l-92.4-39.2l-0.2-0.1c-3.5-1.5-5.4-5.4-4.1-9c0-0.1,0-0.1,0.1-0.2l-2.6,1.1l-2.6,1.9
		l-2.1,7.9l98.8,42L116.9,172.5z"/>
</g>
<g>
	<path class="st3" d="M109,175.7l-92.4-39.2l-0.2-0.1c-3.5-1.5-5.4-5.4-4.1-9c0.6-1.6,1.7-2.9,3.1-3.7l0,0c-9,3.6-14.9,12.3-15,22
		l-0.2,20.5L0,205.4c-0.1,8.7,5.1,16.6,13.1,20l338.6,143.8l32.5-76.6L109,175.7z"/>
</g>
<g>
	<path class="st4" d="M40.7,180.8l13,5.5l-1.8,4.2l-8.1-3.5l-1.3,3.1l3.4,1.5c3.9,1.7,5.4,5.5,3.8,9.2s-5.3,5.2-9.2,3.6l-8.3-3.5
		L40.7,180.8z M41.4,199.8c1.6,0.7,2.8,0.2,3.4-1.1c0.5-1.3,0.1-2.5-1.6-3.3l-2.4-1l-1.8,4.3L41.4,199.8z"/>
	<path class="st4" d="M61.3,189.5l12.6,5.3l-1.8,4.2l-7.7-3.3l-1.5,3.6l6.1,2.6l-1.8,4.2l-6.1-2.6l-1.6,3.8l8,3.4l-1.8,4.2l-13-5.5
		L61.3,189.5z"/>
	<path class="st4" d="M89.5,201.1c2.7,1.1,5.2,3.3,6.3,6l-3.8,2.7c-0.8-1.7-2.4-3.4-4.1-4.2c-4-1.7-6.9,0.4-8.1,3.3
		c-1.3,3-0.8,6.8,3.1,8.4c2,0.8,4.4,0.6,6.4-0.2l1,4.7c-2.5,1.1-5.8,1.5-9.5-0.1c-6.4-2.7-8.6-8.9-6.1-14.9
		C77,201.1,83.3,198.5,89.5,201.1z"/>
	<path class="st4" d="M102.7,207.1l16.9,7.2l-8.5,20l-4.9-2.1l6.7-15.9l-7.1-3l-6.7,15.9l-4.9-2.1L102.7,207.1z"/>
	<path class="st4" d="M126.2,224.9l2.8-6.6l13.5,5.7l-8.5,20L129,242l6.7-15.8l-3.9-1.7l-1,2.4c-4.2,9.9-8.8,12.3-14.4,9.9l1.9-4.5
		C120.8,233.1,123.1,232,126.2,224.9z"/>
	<path class="st4" d="M154.1,228.9l5.2,2.2l-1.7,22.9l-5-2.1l0.6-4.7l-6.3-2.7l-3,3.7l-5-2.1L154.1,228.9z M153.6,242.8l0.5-4.4
		c0.2-1.4,0.7-3.8,0.7-3.8l-0.1,0c0,0-1.4,2-2.3,3.1l-2.8,3.4L153.6,242.8z"/>
	<path class="st4" d="M171.8,241.4l-6.1-2.6l1.8-4.2l17.1,7.3l-1.8,4.2l-6.1-2.6l-6.7,15.8l-4.9-2.1L171.8,241.4z"/>
	<path class="st4" d="M189.9,244.1l4.9,2.1l-3.4,8l7.3,3.1l3.4-8l4.9,2.1l-8.5,20l-4.9-2.1l3.3-7.8l-7.3-3.1l-3.3,7.8l-4.9-2.1
		L189.9,244.1z"/>
	<path class="st4" d="M223.5,258c6.1,2.6,8.6,8.9,6.1,14.7c-2.5,5.9-8.9,8.6-14.9,6c-6.1-2.6-8.5-9.1-6-14.9
		C211.1,258.1,217.5,255.5,223.5,258z M216.6,274.3c3,1.3,6.5-0.3,8-3.7c1.4-3.3,0-6.8-3-8c-3-1.3-6.5,0.2-7.9,3.4
		C212.3,269.4,213.6,273,216.6,274.3z"/>
</g>
</svg>
