<?xml version="1.0" encoding="utf-8"?>
<!-- Generator: Adobe Illustrator 19.0.1, SVG Export Plug-In . SVG Version: 6.00 Build 0)  -->
<svg version="1.1" id="Layer_1" xmlns="http://www.w3.org/2000/svg" xmlns:xlink="http://www.w3.org/1999/xlink" x="0px" y="0px"
	 viewBox="0 0 196.4 110.7" style="enable-background:new 0 0 196.4 110.7;" xml:space="preserve">
<style type="text/css">
	.st0{fill:#EAD3A0;}
	.st1{opacity:0.75;}
	.st2{fill:#D1B27C;}
	.st3{opacity:0.15;}
	.st4{fill:#231F20;}
	.st5{opacity:0.5;}
	.st6{fill:#D3B976;}
	.st7{fill:#A7ADAF;}
	.st8{fill:#838C8E;}
	.st9{fill:#F1F2F2;}
	.st10{fill:#BCBEC0;}
	.st11{fill:#FFFFFF;}
	.st12{fill:#8E9EA8;}
</style>
<g>
	<polygon class="st0" points="115.2,104.4 76.7,104.4 76.7,61.8 97.8,61.8 142.3,68.1 139.9,79.2 135.6,84.4 122.3,107.1 	"/>
</g>
<g>
	<path class="st0" d="M128.5,49.1H103c-4.9,0-9.6,1.9-13.2,5.2l-5.3,5c-1.7,1.6-3.9,2.4-6.2,2.4h-3.6l14.3,6.9l12.5-6.9h14.4
		C122.9,61.8,128.5,56.1,128.5,49.1L128.5,49.1z"/>
</g>
<g>
	<path class="st0" d="M142.3,61.8h-39.1v0c0,7,5.7,12.6,12.6,12.6h26.4c3.5,0,6.3-2.8,6.3-6.3v0C148.7,64.6,145.8,61.8,142.3,61.8z"
		/>
</g>
<g>
	<path class="st0" d="M76.7,104.4l0-42.6l-70,0c0,0-12.6,42.6-3.5,42.6L76.7,104.4z"/>
</g>
<g>
	<polygon class="st0" points="76.7,61.8 55.3,61.8 55.3,104.4 76.7,104.4 83.6,81.7 	"/>
</g>
<g class="st1">
	<path class="st2" d="M142.1,61.8l-32.6,0C104.6,81,94,84.4,80.8,84.4H64.6v20h12.1v0h38.5l7,2.6l13.3-22.7l4.3-5.2l1-4.8h1.4
		c3.6,0,6.4-2.9,6.3-6.5C148.5,64.4,145.5,61.8,142.1,61.8z"/>
</g>
<g class="st3">
	<path class="st4" d="M115.9,68.7c-5,0-9.4-2.8-11.6-6.9l5.5-1.6l0,1.6h17.7C125.3,65.9,120.9,68.7,115.9,68.7z"/>
</g>
<g class="st3">
	<path class="st4" d="M115.2,104.4h-15.1v0c0-2.9,1.4-5.5,3.5-7.1c-1.2-1.5-1.9-3.4-1.9-5.5c0-5,4.1-9.1,9.1-9.1h2.4
		c-0.5-1.1-0.7-2.3-0.7-3.6c0-5,4.1-9.1,9.1-9.1h14c2.2,0,4.3,0.8,5.9,2.2l-1.5,6.9l-4.3,5.2l-13.3,22.7L115.2,104.4z"/>
</g>
<g>
	<path class="st0" d="M114.5,98.1H131c3.5,0,6.3-2.8,6.3-6.3v-6.3h-22.8c-3.5,0-6.3,2.8-6.3,6.3v0C108.2,95.3,111,98.1,114.5,98.1z"
		/>
</g>
<g class="st5">
	<path class="st6" d="M137.3,85.5v3.9h-15.4c-2.6,0-4.9-1.6-5.8-3.9H137.3z"/>
</g>
<g>
	<g>
		<path class="st7" d="M179.7,1.3c-2.5,3.4-27.6,34.7-30.9,39.2c-3.3,4.5-2.8,3.3-2.1,7.7c0.7,4.3,0.4,4.8-5.5,17.9
			c-1.6,3.7-6.8,2.2-10.3,7.5c-3.1,4.6-1.9,10.8,2.7,13.9c4.6,3.1,10.8,1.9,13.9-2.7c0.2-0.3,0.4-0.7,0.6-1.1
			c3.9-7.3-3.4-12.8-1.5-16.7c1.2-2.4,6-11.4,9-16.7c1.5-2.7,22.5-40.9,26.1-47.4c1.1-1.9,1.3-2.1,0.7-2.5
			C181.3-0.3,180.8,0,179.7,1.3z M142.7,73.8c2.9,2,3.7,5.9,1.7,8.8c-2,2.9-5.9,3.7-8.8,1.7c-2.9-2-3.7-5.9-1.7-8.8
			C135.8,72.6,139.8,71.9,142.7,73.8z"/>
	</g>
	<g>
		<path class="st8" d="M156.3,30.9l13.3-6c-1.6,3-3.3,6-4.9,8.9L151.5,37C152.8,35.3,154.5,33.2,156.3,30.9z"/>
	</g>
	<g>
		<path class="st8" d="M165.3,32.7c-7,3.6-13.5,6.9-17.2,8.7c-2.5,3.4-2,2.7-1.4,6.7c0.2,1.5,0.3,2.5,0.2,3.7c0.1,0,0.2,0,0.3,0.1
			c4.3,0.8,3.1,1.3,7.7-1.9c0.3-0.2,0.9-0.6,1.5-1.1C157.9,46.2,161.3,39.9,165.3,32.7z"/>
	</g>
	<g>
		<path class="st9" d="M97.2,61.4c-1.9,0.8-0.2,4.3,1.4,3.6c0.7-0.3,4.7-2,9.1-3.9c3,4.4,9,5.7,13.6,2.8c5.4-3.4,4.1-8.6,7.8-10.1
			c13.3-5.4,13.8-5.7,18-4.9c4.3,0.8,3.1,1.3,7.7-1.9c4.6-3.2,36.7-27.2,40.1-29.7c1.4-1,1.7-1.6,1-2.6c-0.4-0.7-0.6-0.4-2.5,0.6
			c-6.6,3.4-45.5,23.2-48.2,24.6c-5.4,2.8-14.6,7.3-17,8.4c-4,1.8-9.2-5.7-16.6-2c-0.4,0.2-0.7,0.4-1.1,0.6
			c-3.7,2.3-5.3,6.6-4.5,10.6C102,59.2,98.2,61,97.2,61.4z M110.5,58.8c-1.9-3-1-6.9,2-8.8c3-1.9,6.9-1,8.8,2c1.9,3,1,6.9-2,8.8
			C116.3,62.7,112.4,61.8,110.5,58.8z"/>
	</g>
	<g>
		<g>
			<path class="st10" d="M128.3,48.3c0,0,11.6-5.7,17-8.4c2.8-1.4,41.6-21.1,48.2-24.6c2-1,2.1-1.3,2.5-0.6c0.4,0.6,0.4,1,0.2,1.4
				c0-0.1-0.1-0.2-0.1-0.2c-0.4-0.7-0.6-0.4-2.5,0.6C187,20,152,37.8,145.4,41.1C140.9,43.3,137.5,43.8,128.3,48.3z"/>
		</g>
	</g>
	<g>
		<circle class="st11" cx="150.7" cy="43.5" r="2"/>
	</g>
	<g>
		<path class="st12" d="M151.3,41.6c-0.7-0.2-1.4-0.1-2,0.4c-0.8,0.8-0.9,2-0.1,2.9c0.1,0.1,0.1,0.1,0.2,0.2
			c-0.3-0.1-0.6-0.3-0.9-0.6c-0.8-0.8-0.7-2.1,0.1-2.9C149.4,40.9,150.6,40.9,151.3,41.6z"/>
	</g>
</g>
<g>
	<g>
		<path class="st0" d="M125.2,85.5h14c3.5,0,6.3-2.8,6.3-6.3v0c0-3.5-2.8-6.3-6.3-6.3h-14c-3.5,0-6.3,2.8-6.3,6.3v0
			C118.9,82.7,121.7,85.5,125.2,85.5z"/>
	</g>
</g>
<g>
	<g>
		<path class="st0" d="M150.9,72.9L150.9,72.9c3.5,0,6.3-2.8,6.3-6.3v0c0-3.5-2.8-6.3-6.3-6.3l0,0c-3.5,0-6.3,2.8-6.3,6.3v0
			C144.6,70,147.4,72.9,150.9,72.9z"/>
	</g>
</g>
<g>
	<path class="st0" d="M112.9,110.7h11.2c2.9,0,5.2-2.3,5.2-5.2v-7.4h-16.5c-3.5,0-6.3,2.8-6.3,6.3v0
		C106.6,107.9,109.4,110.7,112.9,110.7z"/>
</g>
<g>
	<path class="st9" d="M97.2,61.4c1-0.4,4.9-2.2,8.9-3.9c-0.8-4,0.8-8.3,4.5-10.6c0.4-0.2,0.7-0.4,1.1-0.6c1.5-0.7,2.9-1,4.3-1v3.8
		c-1.2,0-2.3,0.3-3.4,1c-3,1.9-3.9,5.8-2,8.8c1.2,1.9,3.3,3,5.4,3v3.7c-3.2,0-6.3-1.5-8.2-4.3c-4.3,1.8-8.4,3.6-9.1,3.9
		C97,65.7,95.3,62.3,97.2,61.4z"/>
</g>
<g class="st5">
	<path class="st6" d="M107,102c0.9-2.3,3.2-3.9,5.8-3.9h16.5v3.9H107z"/>
</g>
<g>
	<rect x="55.3" y="58.9" width="13.2" height="48.4"/>
</g>
<g>
	<path class="st9" d="M69.5,91.3H54.3V74.9h15.2V91.3z M56.3,89.3h11.2V76.9H56.3V89.3z"/>
</g>
<g>
	<rect x="60.9" y="75.9" class="st9" width="2" height="7.2"/>
</g>
<g>
	<path class="st0" d="M115.9,61.8c7,0,12.6-5.7,12.6-12.6v0h-11.7"/>
</g>
</svg>
