<?xml version="1.0" encoding="utf-8"?>
<!-- Generator: Adobe Illustrator 19.2.0, SVG Export Plug-In . SVG Version: 6.00 Build 0)  -->
<svg version="1.1" id="Layer_1" xmlns="http://www.w3.org/2000/svg" xmlns:xlink="http://www.w3.org/1999/xlink" x="0px" y="0px"
	 viewBox="0 0 680 680" style="enable-background:new 0 0 680 680;" xml:space="preserve">
<style type="text/css">
	.st0{fill:#007EFF;}
	.st1{fill:#25BAAA;}
	.st2{fill:#14BA5F;}
	.st3{fill:#EDAF13;}
	.st4{fill:#FE3131;}
	.st5{fill:#751AC4;}
	.st6{fill:#8E877D;}
	.st7{fill:#231F20;}
	.st8{fill:#FFE6D1;}
	.st9{fill:#F7DBC1;}
	.st10{fill:#FFCC00;}
	.st11{fill:#FFFFFF;}
	.st12{fill:#FE2626;}
	.st13{clip-path:url(#SVGID_2_);}
	.st14{fill:#303030;}
	.st15{clip-path:url(#SVGID_4_);}
	.st16{fill:#008743;}
	.st17{fill:#EAC9B0;}
	.st18{fill:#006831;}
	.st19{fill:#58595B;}
	.st20{fill:#02BA5E;}
	.st21{fill:#8FAAB5;}
	.st22{opacity:0.5;fill:#58595B;}
	.st23{fill:#FF00FF;}
	.st24{fill:#FFE9C5;}
	.st25{fill:#42D8C5;}
	.st26{fill:#4170FD;}
	.st27{fill:#FF3131;}
	.st28{fill:none;stroke:#BBBDBF;stroke-width:10;stroke-miterlimit:10;}
	.st29{fill:none;stroke:#231F20;stroke-width:10;stroke-miterlimit:10;}
	.st30{opacity:0.15;}
	.st31{fill:none;stroke:#BBBDBF;stroke-width:5;stroke-linecap:round;stroke-miterlimit:10;}
	.st32{fill:#D0D2D3;}
	.st33{fill:#BBBDBF;}
	.st34{opacity:0.15;fill:#FFE9C5;}
</style>
<rect y="0" class="st0" width="680" height="680"/>
<g>
	<path class="st8" d="M207.99,456.734l-21.084,63.683c-1.917,5.791,2.526,11.717,8.783,11.717h38.156v60.875h212.31V437.667
		L207.99,456.734z"/>
	<g>
		<polygon class="st9" points="446.155,353.43 242.192,353.43 206.898,460.031 446.155,460.031 		"/>
	</g>
	<path class="st7" d="M446.155,419.242V353.43H242.192l0,0c-10.729,32.405,13.4,65.812,47.536,65.812H446.155z"/>
	<g>
		<path class="st10" d="M233.845,576.554v-44.22c91.927,0,166.715-74.788,166.715-166.715h44.22
			C444.78,481.929,350.155,576.554,233.845,576.554z"/>
	</g>
	<rect x="233.845" y="593.008" width="212.31" height="60.45"/>
	<polygon class="st11" points="252.27,611.434 446.155,611.434 446.155,593.008 233.845,593.008 233.845,653.458 252.27,653.458
		"/>
	<rect x="233.845" y="653.458" class="st12" width="212.31" height="26.542"/>
	<rect x="233.845" y="653.458" class="st11" width="18.209" height="26.542"/>
	<g>
		<path d="M111.376,138.672c0-115.973,94.015-203.23,209.988-203.23s209.988,87.257,209.988,203.23L321.363,255.894"/>
		<rect x="111.376" y="138.672" width="419.976" height="318.061"/>
		<path d="M321.363,456.734c68.708,0,124.441,55.525,124.792,124.15h85.196v-124.15v-55.276L321.363,456.734z"/>
		<g>
			<defs>
				<path id="SVGID_3_" d="M321.364-64.558c-115.973,0-209.988,87.257-209.988,203.23v318.061h209.988
					c68.708,0,124.441,55.525,124.792,124.15h85.196v-124.15v-55.276V138.672C531.351,22.699,437.337-64.558,321.364-64.558z"/>
			</defs>
			<clipPath id="SVGID_2_">
				<use xlink:href="#SVGID_3_"  style="overflow:visible;"/>
			</clipPath>
			<g class="st13">
				<g>

						<rect x="418.475" y="614.061" transform="matrix(0.7071 -0.7071 0.7071 0.7071 -327.5734 487.5665)" class="st14" width="12.567" height="50.277"/>

						<rect x="484.648" y="547.887" transform="matrix(0.7071 -0.7071 0.7071 0.7071 -261.3999 514.9764)" class="st14" width="12.567" height="50.277"/>

						<rect x="550.822" y="481.714" transform="matrix(0.7071 -0.7071 0.7071 0.7071 -195.2264 542.3864)" class="st14" width="12.567" height="50.277"/>

						<rect x="616.995" y="415.54" transform="matrix(0.7071 -0.7071 0.7071 0.7071 -129.0529 569.7963)" class="st14" width="12.567" height="50.277"/>

						<rect x="683.169" y="349.367" transform="matrix(0.7071 -0.7071 0.7071 0.7071 -62.8794 597.2063)" class="st14" width="12.567" height="50.277"/>
				</g>
				<g>

						<rect x="322.097" y="583.857" transform="matrix(0.7071 -0.7071 0.7071 0.7071 -334.4443 410.5709)" class="st14" width="12.567" height="50.277"/>

						<rect x="388.271" y="517.684" transform="matrix(0.7071 -0.7071 0.7071 0.7071 -268.2709 437.9809)" class="st14" width="12.567" height="50.277"/>

						<rect x="454.444" y="451.51" transform="matrix(0.7071 -0.7071 0.7071 0.7071 -202.0974 465.3908)" class="st14" width="12.567" height="50.277"/>

						<rect x="520.618" y="385.337" transform="matrix(0.7071 -0.7071 0.7071 0.7071 -135.9239 492.8008)" class="st14" width="12.567" height="50.277"/>

						<rect x="586.791" y="319.163" transform="matrix(0.7071 -0.7071 0.7071 0.7071 -69.7504 520.2108)" class="st14" width="12.567" height="50.277"/>

						<rect x="586.791" y="319.163" transform="matrix(0.7071 -0.7071 0.7071 0.7071 -69.7504 520.2108)" class="st14" width="12.567" height="50.277"/>

						<rect x="652.965" y="252.99" transform="matrix(0.7071 -0.7071 0.7071 0.7071 -3.5769 547.6207)" class="st14" width="12.567" height="50.277"/>
				</g>
				<g>

						<rect x="291.894" y="487.48" transform="matrix(0.7071 -0.7071 0.7071 0.7071 -275.1418 360.9854)" class="st14" width="12.567" height="50.277"/>

						<rect x="358.067" y="421.306" transform="matrix(0.7071 -0.7071 0.7071 0.7071 -208.9683 388.3953)" class="st14" width="12.567" height="50.277"/>

						<rect x="424.241" y="355.133" transform="matrix(0.7071 -0.7071 0.7071 0.7071 -142.7948 415.8053)" class="st14" width="12.567" height="50.277"/>

						<rect x="490.414" y="288.959" transform="matrix(0.7071 -0.7071 0.7071 0.7071 -76.6213 443.2152)" class="st14" width="12.567" height="50.277"/>

						<rect x="556.588" y="222.786" transform="matrix(0.7071 -0.7071 0.7071 0.7071 -10.4478 470.6252)" class="st14" width="12.567" height="50.277"/>
				</g>
				<g>

						<rect x="195.516" y="457.276" transform="matrix(0.7071 -0.7071 0.7071 0.7071 -282.0127 283.9898)" class="st14" width="12.567" height="50.277"/>

						<rect x="261.69" y="391.103" transform="matrix(0.7071 -0.7071 0.7071 0.7071 -215.8392 311.3997)" class="st14" width="12.567" height="50.277"/>

						<rect x="327.863" y="324.929" transform="matrix(0.7071 -0.7071 0.7071 0.7071 -149.6658 338.8097)" class="st14" width="12.567" height="50.277"/>

						<rect x="394.037" y="258.756" transform="matrix(0.7071 -0.7071 0.7071 0.7071 -83.4923 366.2197)" class="st14" width="12.567" height="50.277"/>

						<rect x="460.21" y="192.582" transform="matrix(0.7071 -0.7071 0.7071 0.7071 -17.3188 393.6296)" class="st14" width="12.567" height="50.277"/>

						<rect x="460.21" y="192.582" transform="matrix(0.7071 -0.7071 0.7071 0.7071 -17.3188 393.6296)" class="st14" width="12.567" height="50.277"/>

						<rect x="526.384" y="126.409" transform="matrix(0.7071 -0.7071 0.7071 0.7071 48.8548 421.0396)" class="st14" width="12.567" height="50.277"/>
				</g>
				<g>

						<rect x="165.313" y="360.899" transform="matrix(0.7071 -0.7071 0.7071 0.7071 -222.7102 234.4042)" class="st14" width="12.567" height="50.277"/>

						<rect x="231.486" y="294.725" transform="matrix(0.7071 -0.7071 0.7071 0.7071 -156.5367 261.8142)" class="st14" width="12.567" height="50.277"/>

						<rect x="297.659" y="228.552" transform="matrix(0.7071 -0.7071 0.7071 0.7071 -90.3632 289.2241)" class="st14" width="12.567" height="50.277"/>

						<rect x="363.833" y="162.378" transform="matrix(0.7071 -0.7071 0.7071 0.7071 -24.1897 316.6341)" class="st14" width="12.567" height="50.277"/>

						<rect x="430.006" y="96.205" transform="matrix(0.7071 -0.7071 0.7071 0.7071 41.9838 344.0441)" class="st14" width="12.567" height="50.277"/>
				</g>
				<g>

						<rect x="68.935" y="330.695" transform="matrix(0.7071 -0.7071 0.7071 0.7071 -229.5811 157.4087)" class="st14" width="12.567" height="50.277"/>

						<rect x="135.109" y="264.521" transform="matrix(0.7071 -0.7071 0.7071 0.7071 -163.4076 184.8186)" class="st14" width="12.567" height="50.277"/>

						<rect x="201.282" y="198.348" transform="matrix(0.7071 -0.7071 0.7071 0.7071 -97.2341 212.2286)" class="st14" width="12.567" height="50.277"/>

						<rect x="267.456" y="132.174" transform="matrix(0.7071 -0.7071 0.7071 0.7071 -31.0606 239.6385)" class="st14" width="12.567" height="50.277"/>

						<rect x="333.629" y="66.001" transform="matrix(0.7071 -0.7071 0.7071 0.7071 35.1129 267.0485)" class="st14" width="12.567" height="50.277"/>

						<rect x="333.629" y="66.001" transform="matrix(0.7071 -0.7071 0.7071 0.7071 35.1129 267.0485)" class="st14" width="12.567" height="50.277"/>

						<rect x="399.803" y="-0.173" transform="matrix(0.7071 -0.7071 0.7071 0.7071 101.2864 294.4585)" class="st14" width="12.567" height="50.277"/>
				</g>
				<g>

						<rect x="38.731" y="234.318" transform="matrix(0.7071 -0.7071 0.7071 0.7071 -170.2785 107.8231)" class="st14" width="12.567" height="50.277"/>

						<rect x="104.905" y="168.144" transform="matrix(0.7071 -0.7071 0.7071 0.7071 -104.1051 135.233)" class="st14" width="12.567" height="50.277"/>

						<rect x="171.078" y="101.971" transform="matrix(0.7071 -0.7071 0.7071 0.7071 -37.9316 162.643)" class="st14" width="12.567" height="50.277"/>

						<rect x="237.252" y="35.797" transform="matrix(0.7071 -0.7071 0.7071 0.7071 28.2419 190.053)" class="st14" width="12.567" height="50.277"/>

						<rect x="303.425" y="-30.376" transform="matrix(0.7071 -0.7071 0.7071 0.7071 94.4154 217.4629)" class="st14" width="12.567" height="50.277"/>
				</g>
				<g>

						<rect x="8.528" y="137.94" transform="matrix(0.7071 -0.7071 0.7071 0.7071 -110.976 58.2375)" class="st14" width="12.567" height="50.277"/>

						<rect x="74.701" y="71.767" transform="matrix(0.7071 -0.7071 0.7071 0.7071 -44.8025 85.6475)" class="st14" width="12.567" height="50.277"/>

						<rect x="140.875" y="5.593" transform="matrix(0.7071 -0.7071 0.7071 0.7071 21.371 113.0574)" class="st14" width="12.567" height="50.277"/>
				</g>
			</g>
		</g>
	</g>
</g>
</svg>
