<?xml version="1.0" encoding="utf-8"?>
<!-- Generator: Adobe Illustrator 19.0.1, SVG Export Plug-In . SVG Version: 6.00 Build 0)  -->
<svg version="1.1" id="Layer_1" xmlns="http://www.w3.org/2000/svg" xmlns:xlink="http://www.w3.org/1999/xlink" x="0px" y="0px"
	 viewBox="0 0 195.8 139.1" style="enable-background:new 0 0 195.8 139.1;" xml:space="preserve">
<style type="text/css">
	.st0{fill:#CEA90F;}
	.st1{fill:#F1F2F2;}
	.st2{opacity:0.1;}
	.st3{opacity:0.2;}
	.st4{fill:#231F20;}
	.st5{fill:#5CDAC6;}
	.st6{fill:#E8CC23;}
	.st7{fill:#FF4800;}
	.st8{fill:#EAD3A0;}
	.st9{opacity:0.75;}
	.st10{fill:#D1B27C;}
	.st11{opacity:0.15;}
	.st12{opacity:0.5;}
	.st13{fill:#D3B976;}
	.st14{fill:#CC3500;}
</style>
<g>
	<path class="st0" d="M176.6,85c3.7,3.7,4.8,4.8,10.8,10.8c10.8,10.8,10.7,20.6,2.4,29l-14.4,14.4l-16.1-16.1l14.8-14.8
		C184.5,97.9,181,89.3,176.6,85z"/>
</g>
<g>
	<g>
		
			<rect x="166.3" y="117.2" transform="matrix(0.7071 -0.7071 0.7071 0.7071 -41.1178 157.8252)" class="st1" width="7.2" height="22.7"/>
	</g>
</g>
<g class="st2">
	<path d="M179.4,87.8c-0.8-0.8-1.7-1.7-2.8-2.8c4.3,4.3,7.9,12.9-2.5,23.2l-14.8,14.8l8.1,8.1l14.4-14.4
		C190.1,108.5,190.3,98.6,179.4,87.8z"/>
</g>
<g>
	<path class="st1" d="M61.4,37.5l-1.7,1L53.6,29c-0.3-0.5-0.1-1.1,0.4-1.4v0c0.5-0.3,1.1-0.1,1.4,0.4L61.4,37.5z"/>
</g>
<g class="st3">
	<path class="st4" d="M53.4,26.8c-0.5,0.3-0.6,0.9-0.3,1.4l6.6,10.3l0.8-0.5L53.4,26.8z"/>
</g>
<g>
	<path class="st1" d="M67,38.2h-2V26c0-0.6,0.4-1,1-1l0,0c0.6,0,1,0.4,1,1V38.2z"/>
</g>
<g>
	<circle class="st5" cx="53.5" cy="26.8" r="2.8"/>
</g>
<g class="st3">
	<path class="st4" d="M66,25c-0.6,0-1,0.4-1,1v12.2h1V25z"/>
</g>
<g>
	<circle class="st6" cx="66" cy="26.1" r="2.8"/>
</g>
<g>
	<circle class="st1" cx="67" cy="25" r="0.8"/>
</g>
<g>
	<circle class="st1" cx="54.2" cy="25.7" r="0.8"/>
</g>
<g>
	<path class="st7" d="M70,33.6c-0.9-0.3-1.9-0.1-2.7,0.2c-0.4,0.2-0.8,0.2-1.2,0.2c-0.4,0-0.9-0.1-1.2-0.2c-0.9-0.4-1.9-0.5-2.8-0.2
		c0,0-0.1,0-0.1,0c-0.7,0.2-1.2,0.7-1.6,1.3c-0.1,0.2-0.3,0.4-0.5,0.6c-0.5,0.5-1.2,0.8-1.9,0.9c-0.7,0.1-1.4,0.5-1.9,1
		c-2,2.3-3.3,5.3-3.4,8.6h26.8C79.3,40.2,75.4,35.3,70,33.6z"/>
</g>
<g>
	<polygon class="st8" points="119.4,96 80.8,96 80.8,53.4 114.5,53.4 125.6,53.4 126.4,98.6 	"/>
</g>
<g>
	<rect x="0" y="53.4" class="st8" width="80.8" height="42.6"/>
</g>
<g>
	<polygon class="st8" points="80.8,53.4 59.4,53.4 59.4,96 80.8,96 87.8,73.3 	"/>
</g>
<g class="st9">
	<path class="st10" d="M126,53.4h-12.4C108.8,72.6,98.1,76,84.9,76H68.8v20h12.1v0h38.5l7,2.6l9.2-15.6L126,53.4z"/>
</g>
<g class="st11">
	<path class="st4" d="M111.6,99.2c0,2.1-0.5,4.1-1.3,5.9c10.2-3.7,18.7-4,18.7-4l-17.3-8.7V99.2z"/>
</g>
<g>
	<rect x="59.4" y="50.5" width="13.2" height="48.4"/>
</g>
<g>
	<path class="st0" d="M110,113.9c-8.9-8.9,5.5-24.5,13.9-32.9c5.2-5.2,25.1-25.1,29-29c14-14,8.1-25.6,0.1-33.5
		c-0.8-0.8-3.3-3.3-10.1-10.1c10.1,10.1,3,20.2-1.2,24.4c-5.5,5.5-28.3,28.4-35.2,35.3c-10.3,10.3-16.9,25.4-2.7,39.7L110,113.9z"/>
</g>
<g class="st2">
	<path d="M113.1,74.7c6.9-6.9,29.7-29.8,35.2-35.3c4.2-4.2,11.4-14.3,1.2-24.4c-1.5-1.5-3.7-3.7-6.6-6.6c10.1,10.1,3,20.2-1.2,24.4
		c-5.5,5.5-28.3,28.4-35.2,35.3c-10.3,10.3-16.9,25.4-2.7,39.7l5.6,5.6C96.4,99.4,103,84.7,113.1,74.7z"/>
</g>
<g class="st12">
	<g>
		<path class="st13" d="M124.7,65.9c-0.3-0.1-0.6-0.1-0.8-0.2C124.1,65.7,124.4,65.8,124.7,65.9z"/>
	</g>
	<g>
		<path class="st13" d="M126,66c-0.4,0-0.7,0-1-0.1C125.3,65.9,125.6,66,126,66z"/>
	</g>
</g>
<g>
	<path class="st8" d="M132.7,40.7h-25.5c-4.9,0-9.6,1.9-13.2,5.2l-5.3,5c-1.7,1.6-3.9,2.4-6.2,2.4h-3.6l21.2,9.9l3.5-4.5
		c2.6-3.4,6.6-5.3,10.8-5.3h5.6C127,53.4,132.7,47.7,132.7,40.7L132.7,40.7z"/>
</g>
<g class="st9">
	<path class="st10" d="M100.1,42.1l7,7l8.3-8.3h-8.3C104.8,40.7,102.4,41.2,100.1,42.1z"/>
</g>
<g>
	<rect x="52.6" y="46.1" width="26.8" height="5.9"/>
</g>
<g>
	<path class="st14" d="M68.8,44.2c-5.3,0-10.1-2.3-13.3-6c-1.7,2.2-2.8,5-2.8,7.9h26.8c0-1.7-0.4-3.3-1-4.8
		C75.6,43.2,72.3,44.2,68.8,44.2z"/>
</g>
<g>
	<path class="st6" d="M153.7,19.2c-3.7-3.7-4.8-4.8-10.8-10.8C132-2.4,122.2-2.3,113.9,6L91,28.9L107.1,45l23.4-23.4
		C140.8,11.3,149.3,14.8,153.7,19.2z"/>
</g>
<g>
	<path class="st6" d="M175.6,84c-10.8-10.8-20.6-10.7-29-2.4l-18.9,19c-6.2,6.2-20.7,10.4-25.9,5.2c0,0,2.2,2.2,6.2,6.2
		c14.5,14.5,27.4,13.1,41.8-1.3L163,97.4l0.1-0.1c8.9-8.9,19.9-5.8,24.2-1.4C183.7,92.1,181.6,90,175.6,84z"/>
</g>
<g>
	<g>
		<rect x="98" y="23.1" transform="matrix(0.7071 -0.7071 0.7071 0.7071 5.4254 81.9126)" class="st1" width="7.2" height="22.7"/>
	</g>
</g>
<g>
	<rect x="102.3" y="18.4" transform="matrix(0.7071 0.7071 -0.7071 0.7071 45.0153 -69.7866)" class="st4" width="8.9" height="2"/>
</g>
<g>
	<rect x="110.6" y="10.1" transform="matrix(0.7071 0.7071 -0.7071 0.7071 41.5713 -78.1011)" class="st4" width="8.9" height="2"/>
</g>
<g>
	<path class="st4" d="M120.5,1.3l-0.1,0.1l6.3,6.3l1.4-1.4l-5.7-5.7C121.7,0.8,121.1,1.1,120.5,1.3z"/>
</g>
<g>
	<g>
		
			<rect x="126.4" y="102.7" transform="matrix(0.7071 0.7071 -0.7071 0.7071 111.6663 -62.1311)" class="st4" width="8.9" height="2"/>
	</g>
</g>
<g>
	<g>
		
			<rect x="134.6" y="94.5" transform="matrix(0.7071 0.7071 -0.7071 0.7071 108.2791 -70.3089)" class="st4" width="8.9" height="2"/>
	</g>
</g>
<g>
	<g>
		
			<rect x="143.8" y="85.3" transform="matrix(0.7071 0.7071 -0.7071 0.7071 104.4699 -79.5058)" class="st4" width="8.9" height="2"/>
	</g>
</g>
<g>
	<path class="st4" d="M154.7,76.4l6.1,6.1l1.4-1.4l-5.3-5.3C156.3,75.9,155.5,76.1,154.7,76.4z"/>
</g>
<g>
	<path class="st4" d="M114.1,107.6L114.1,107.6l6.2,6.3l1.4-1.4l-5.5-5.5c-0.6,0.2-1.3,0.4-1.9,0.5
		C114.2,107.5,114.2,107.6,114.1,107.6z"/>
</g>
<g class="st11">
	<path class="st4" d="M136.9,59.4h-29.5v-0.1c-3.2,0.2-5.7,2.9-5.7,6.1v0c0,0,0,0,0,0.1c0,0,0,0.1,0,0.1c0,3.5,2.8,6.3,6.3,6.3
		c-0.1,0-0.1,0-0.2,0c0.1,0,0.2,0,0.3,0H108h-4.5c0,0,0,0,0,0c-0.3,0-0.6,0-0.9,0.1c-0.1,0-0.1,0-0.2,0c-0.3,0-0.6,0.1-0.8,0.2
		c0,0,0,0,0,0c-0.3,0.1-0.5,0.2-0.8,0.3c-0.1,0-0.1,0.1-0.2,0.1c-0.3,0.1-0.5,0.3-0.7,0.4c0,0,0,0,0,0c-0.2,0.2-0.4,0.3-0.7,0.5
		c0,0-0.1,0.1-0.1,0.1c-0.4,0.4-0.8,0.8-1.1,1.3c0,0,0,0.1-0.1,0.1c-0.3,0.6-0.6,1.2-0.7,1.9c0,0,0,0.1,0,0.1c0,0.2-0.1,0.3-0.1,0.5
		c0,0.2,0,0.4,0,0.6c0,3.4,2.7,6.2,6.1,6.3c-0.2,0.2-0.4,0.3-0.6,0.5c0,0,0,0-0.1,0c-0.4,0.4-0.8,0.9-1.1,1.4c0,0,0,0,0,0
		c-0.4,0.6-0.6,1.3-0.8,2c0,0,0,0.1,0,0.1c0,0.2-0.1,0.3-0.1,0.5c0,0.2,0,0.4,0,0.6c0,0,0,0,0,0.1c0,1.7,0.7,3.3,1.8,4.5
		c0,0,0,0,0,0c0.2,0.2,0.5,0.4,0.7,0.6c0.2,0.1,0.3,0.2,0.5,0.3c0.1,0,0.1,0.1,0.2,0.1c0,0,0,0,0,0c0.3,0.2,0.6,0.3,1,0.4
		c0.6,0.2,1.3,0.3,2,0.3h0h15.2c2.9,0,5.2-2.3,5.2-5.2v-7.3c2-1.3,3.4-3.5,3.4-6.1v-5.4h0h0h-1.4c3.3,0,6-2.7,6-6v-1.2
		c0-1.6-0.7-3-1.8-4C134.8,60.6,135.9,60.1,136.9,59.4z"/>
</g>
<g>
	<g>
		<path class="st8" d="M113,101.1h15.2c2.9,0,5.2-2.3,5.2-5.2v-7.4H113c-3.5,0-6.3,2.8-6.3,6.3v0C106.7,98.3,109.5,101.1,113,101.1z
			"/>
	</g>
	<g class="st12">
		<path class="st13" d="M107.2,92.4c0.9-2.3,3.2-3.9,5.8-3.9h20.5v0c0,2.2-1.8,3.9-3.9,3.9H107.2z"/>
	</g>
	<g>
		<path class="st8" d="M109.6,89.7h20.1c4,0,7.2-3.2,7.2-7.2v-5.4h-27.3c-3.5,0-6.3,2.8-6.3,6.3v0C103.3,86.9,106.1,89.7,109.6,89.7
			z"/>
	</g>
	<g class="st12">
		<path class="st13" d="M109.6,77.1c-2.6,0-4.9,1.6-5.8,3.9h23.2c3.7,0,7.3-1.4,10-3.9v0H109.6z"/>
	</g>
	<g>
		<path class="st8" d="M114.3,77.1h21.2c3.3,0,6-2.7,6-6v-1.2c0-3-2.5-5.5-5.5-5.5H114c-3.4,0-6.2,2.8-6.2,6.2v0
			C107.8,74.2,110.7,77.1,114.3,77.1z"/>
	</g>
	<g class="st12">
		<path class="st13" d="M114.3,68.4h-6.1c-0.3,0.7-0.5,1.5-0.5,2.3c0,3.5,2.8,6.3,6.3,6.3C108.3,77.1,108.6,68.4,114.3,68.4z"/>
	</g>
	<g class="st12">
		<path class="st13" d="M111.3,81h-7.6c-0.3,0.7-0.5,1.5-0.5,2.4c0,3.5,2.8,6.3,6.3,6.3C105.1,89.7,103.3,81,111.3,81z"/>
	</g>
	<g class="st12">
		<path class="st13" d="M113.4,92.4h-6.2c-0.3,0.7-0.5,1.5-0.5,2.4l0,0c0,3.5,2.8,6.3,6.3,6.3C108,101.1,106.4,92.4,113.4,92.4z"/>
	</g>
	<g class="st12">
		<path class="st13" d="M114.1,64.4c-2.6,0-4.9,1.6-5.8,3.9h23.2c3.7,0,7.3-1.4,10-3.9l0,0H114.1z"/>
	</g>
	<g>
		<g>
			<path class="st8" d="M134.6,66h12.8c3.9,0,7.1-3.2,7.1-7.1v0c0-3.1-2.5-5.5-5.5-5.5h-14.3c-3.5,0-6.3,2.8-6.3,6.3v0
				C128.3,63.2,131.1,66,134.6,66z"/>
		</g>
	</g>
	<g class="st12">
		<path class="st13" d="M134.1,57.2c3,0,5.9-1.1,8.1-3.1l0.8-0.7l0,0h-8.4c-2.6,0-4.8,1.6-5.8,3.8H134.1z"/>
	</g>
</g>
</svg>
