<?xml version="1.0" encoding="utf-8"?>
<!-- Generator: Adobe Illustrator 19.2.0, SVG Export Plug-In . SVG Version: 6.00 Build 0)  -->
<svg version="1.1" id="Layer_1" xmlns="http://www.w3.org/2000/svg" xmlns:xlink="http://www.w3.org/1999/xlink" x="0px" y="0px"
	 viewBox="0 0 680 680" style="enable-background:new 0 0 680 680;" xml:space="preserve">
<style type="text/css">
	.st0{fill:#007EFF;}
	.st1{fill:#25BAAA;}
	.st2{fill:#14BA5F;}
	.st3{fill:#EDAF13;}
	.st4{fill:#FE3131;}
	.st5{fill:#751AC4;}
	.st6{fill:#8E877D;}
	.st7{fill:#231F20;}
	.st8{fill:#FFE6D1;}
	.st9{fill:#F7DBC1;}
	.st10{fill:#FFCC00;}
	.st11{fill:#FFFFFF;}
	.st12{fill:#FE2626;}
	.st13{clip-path:url(#SVGID_2_);}
	.st14{fill:#303030;}
	.st15{clip-path:url(#SVGID_4_);}
	.st16{fill:#008743;}
	.st17{fill:#EAC9B0;}
	.st18{fill:#006831;}
	.st19{fill:#58595B;}
	.st20{fill:#02BA5E;}
	.st21{fill:#8FAAB5;}
	.st22{opacity:0.5;fill:#58595B;}
	.st23{fill:#FF00FF;}
	.st24{fill:#FFE9C5;}
	.st25{fill:#42D8C5;}
	.st26{fill:#4170FD;}
	.st27{fill:#FF3131;}
	.st28{fill:none;stroke:#BBBDBF;stroke-width:10;stroke-miterlimit:10;}
	.st29{fill:none;stroke:#231F20;stroke-width:10;stroke-miterlimit:10;}
	.st30{opacity:0.15;}
	.st31{fill:none;stroke:#BBBDBF;stroke-width:5;stroke-linecap:round;stroke-miterlimit:10;}
	.st32{fill:#D0D2D3;}
	.st33{fill:#BBBDBF;}
	.st34{opacity:0.15;fill:#FFE9C5;}
</style>
<rect y="0" class="st4" width="680" height="680"/>
<g>
	<path class="st8" d="M226.392,438.111l-39.487,82.108c-1.917,5.791,2.526,11.717,8.783,11.717h38.156v60.875h212.31l-0.023-155.341
		L226.392,438.111z"/>
	<rect x="233.845" y="592.811" class="st11" width="212.31" height="87.189"/>
	<path d="M295.053,545.755h-61.208v-13.819h68.669v6.358C302.513,542.414,299.173,545.755,295.053,545.755z"/>
	<path class="st17" d="M203.029,486.691l46.616-96.933c5.321-11.064,16.512-18.1,28.789-18.1h135.764
		c17.647,0,31.952,14.309,31.945,31.956l-0.012,33.855L203.029,486.691z"/>
	<path class="st7" d="M414.199,371.658H278.435c-12.277,0-23.468,7.036-28.789,18.1l0,0c-10.627,22.098,5.476,47.711,29.997,47.711
		h166.49l0.012-33.855C446.15,385.967,431.846,371.658,414.199,371.658z"/>
	<path d="M254.038,572.617c0,11.152-9.041,20.193-20.193,20.193v-20.193H254.038z"/>
	<polygon class="st0" points="634.014,670.099 634.014,663.599 682.764,663.599 682.764,653.199 634.014,653.199 634.014,646.699 
		682.764,646.699 682.764,636.603 233.845,636.603 233.845,680 682.764,680 682.764,670.099 	"/>
	<g>
		<path d="M171.875,333.545l45.853,70.022c18.259,27.883,49.343,44.684,82.673,44.684h195.296c16.815,0,26.907-18.672,17.695-32.74
			l-45.853-70.022c-18.259-27.883-49.343-44.684-82.673-44.684H189.571C172.755,300.805,162.663,319.477,171.875,333.545z"/>
	</g>
	<rect x="361.765" y="270.509" width="20.502" height="59.9"/>
</g>
</svg>
