<?xml version="1.0" encoding="utf-8"?>
<!-- Generator: Adobe Illustrator 19.2.0, SVG Export Plug-In . SVG Version: 6.00 Build 0)  -->
<svg version="1.1" id="Layer_1" xmlns="http://www.w3.org/2000/svg" xmlns:xlink="http://www.w3.org/1999/xlink" x="0px" y="0px"
	 viewBox="0 0 40 40" style="enable-background:new 0 0 40 40;" xml:space="preserve">
<g>
	<path d="M32.5,0h-25C3.358,0,0,3.357,0,7.5v25C0,36.642,3.358,40,7.5,40h25c4.142,0,7.5-3.358,7.5-7.5v-25
		C40,3.357,36.642,0,32.5,0z M29.561,27.448c-0.42,0.839-0.983,1.531-1.695,2.084c-0.839,0.661-1.761,1.127-2.77,1.409
		c-1.004,0.281-2.279,0.419-3.831,0.419h-8.94V9.024h7.891c1.639,0,2.883,0.061,3.727,0.19c0.846,0.122,1.639,0.383,2.377,0.783
		c0.798,0.429,1.397,1.009,1.791,1.725c0.395,0.722,0.595,1.552,0.595,2.494c0,1.09-0.272,2.059-0.819,2.908
		c-0.543,0.851-1.296,1.476-2.253,1.88v0.117c1.377,0.292,2.483,0.882,3.312,1.778c0.83,0.896,1.245,2.104,1.245,3.62
		C30.191,25.63,29.981,26.608,29.561,27.448z"/>
	<path d="M20.63,17.816c0.384-0.02,0.783-0.123,1.193-0.312c0.446-0.21,0.758-0.502,0.927-0.871c0.169-0.374,0.256-0.804,0.256-1.29
		c0-0.491-0.168-0.992-0.504-1.514c-0.471-0.444-1.111-0.662-1.948-0.688c-0.507-0.016-1.26-0.021-2.259-0.021h-0.389v4.727h0.707
		C19.57,17.847,20.246,17.837,20.63,17.816z"/>
	<path d="M22.735,21.913c-0.338-0.134-0.809-0.205-1.403-0.221c-0.594-0.015-1.393-0.02-2.391-0.02h-1.035v5.592h0.302
		c1.46,0,2.469-0.011,3.027-0.03c0.558-0.021,1.131-0.154,1.71-0.405c0.512-0.221,0.881-0.543,1.116-0.968
		c0.236-0.425,0.353-0.907,0.353-1.444c0-0.692-0.137-1.229-0.419-1.619C23.713,22.404,23.293,22.113,22.735,21.913z"/>
</g>
</svg>
