<?xml version="1.0" encoding="utf-8"?>
<!-- Generator: Adobe Illustrator 19.2.0, SVG Export Plug-In . SVG Version: 6.00 Build 0)  -->
<svg version="1.1" id="Layer_1" xmlns="http://www.w3.org/2000/svg" xmlns:xlink="http://www.w3.org/1999/xlink" x="0px" y="0px"
	 viewBox="0 0 40 40" style="enable-background:new 0 0 40 40;" xml:space="preserve">
<g>
	<path d="M28.363,0H11.637C5.237,0,0,5.097,0,11.326v17.348C0,34.903,5.237,40,11.637,40h16.726C34.763,40,40,34.903,40,28.674
		V11.326C40,5.097,34.763,0,28.363,0z M36.925,28.674c0,2.213-0.894,4.303-2.518,5.883c-1.623,1.58-3.77,2.45-6.044,2.45H11.637
		c-2.274,0-4.421-0.87-6.044-2.45c-1.624-1.58-2.518-3.67-2.518-5.883V11.326c0-2.213,0.894-4.302,2.518-5.882
		c1.623-1.581,3.77-2.451,6.044-2.451h16.726c2.274,0,4.421,0.87,6.044,2.451c1.624,1.58,2.518,3.669,2.518,5.882V28.674z"/>
	<path d="M20,9.125c-5.921,0-10.721,4.799-10.721,10.72S14.08,30.566,20,30.566s10.72-4.8,10.72-10.721S25.921,9.125,20,9.125z
		 M19.949,26.874c-3.877,0-7.021-3.143-7.021-7.02s3.143-7.02,7.021-7.02c3.877,0,7.02,3.143,7.02,7.02
		C26.968,23.731,23.826,26.874,19.949,26.874z"/>
	<circle cx="30.953" cy="8.958" r="2.539"/>
</g>
</svg>
