<?xml version="1.0" encoding="utf-8"?>
<!-- Generator: Adobe Illustrator 19.2.0, SVG Export Plug-In . SVG Version: 6.00 Build 0)  -->
<svg version="1.1" id="Layer_1" xmlns="http://www.w3.org/2000/svg" xmlns:xlink="http://www.w3.org/1999/xlink" x="0px" y="0px"
	 viewBox="0 0 34 58" style="enable-background:new 0 0 34 58;" xml:space="preserve">
<style type="text/css">
	.st0{fill:#FFFFFF;}
	.st1{fill:none;stroke:#FFFFFF;stroke-width:4;stroke-linecap:round;stroke-linejoin:round;stroke-miterlimit:10;}
</style>
<g>
	<g>
		<path class="st0" d="M17,2c8.271,0,15,6.729,15,15v24c0,8.271-6.729,15-15,15S2,49.271,2,41V17C2,8.729,8.729,2,17,2 M17,0
			C7.611,0,0,7.611,0,17v24c0,9.389,7.611,17,17,17s17-7.611,17-17V17C34,7.611,26.389,0,17,0L17,0z"/>
	</g>
	<line class="st1" x1="17" y1="16.098" x2="17" y2="24.079"/>
</g>
</svg>
